Patient4_TMGait_0pt6_02_left_32_EMG.mot
version=1
nRows=26
nColumns=33
inDegrees=no
endheader
time	1LAddLong	2LGlutMax	3LGlutMed	4LIliopsoas	5LSemiMemb	6LBicFemLong	7LRecFem	8LVastMed	9LVastLat	10LGasMed	11LTibAnt	12lTibPost	13LPeroneusLong	14LSol	15LExtDigLong	16LFlexDigLong	17RAddLong	18RGlutMax	19RGlutMed	20RIliopsoas	21RSemiMemb	22RBicFemLong	23RRecFem	24RVastMed	25RVastLat	26RGasMed	27RTibAnt	28RTibPost	29RPeroneusLong	30RSol	31RExtDigLong	32RFlexDigLong
40.353	0.006104	-0.083008	0.13351	0.004425	-0.019836	0.081482	-0.029297	-0.018311	0.024109	-0.035095	0.00824	0.004578	0.044861	-0.029755	0.040131	0.016632	-0.032043	-0.2214	0.60669	0.063477	0.018463	0.056458	-0.17899	0.15182	0.11185	-0.096741	-0.010529	-0.007172	-1.0231	0.06958	0.001068	-0.007324
40.354	0.007782	-0.081635	0.059662	0.010834	-0.003204	0.026703	-0.015259	0.004578	0.026703	-0.003357	0.028534	0.011444	-0.028076	-0.032501	0.054626	0.007782	-0.002899	-0.19058	0.26443	0.017395	0.012665	-0.032959	-0.031281	0.086823	0.07309	-0.089111	-0.073547	0.004425	-0.66589	0.30624	0.001373	-0.000305
40.355	0.000916	-0.076294	0.050812	0.011292	-0.023499	-0.051727	-0.036774	0.014801	0.037231	-0.01709	-0.005646	0.001068	-0.041504	-0.028534	0.10452	0.00412	0.026398	-0.13504	0.12924	-0.004578	-0.062103	-0.13001	0.010986	0.010834	-0.00412	-0.076447	0.013275	-0.000916	0.09964	0.37064	-0.00061	-0.012665
40.356	0.021973	-0.075531	0.032501	0.016327	-0.003357	-0.080109	-0.027924	0.014801	0.035248	-0.019836	-0.04837	0.005035	-0.047302	-0.029144	0.13458	0.010223	0.025482	-0.11505	0.088959	0.036469	-0.21606	-0.21194	0.029907	0.025177	-0.048981	0.037079	0.036926	-0.014801	0.22995	0.26306	0.007324	-0.010529
40.357	0.013275	-0.079498	0.018311	0.020599	0.00061	-0.047302	-0.033722	0.012665	0.039215	-0.031281	-0.002441	0.000763	-0.049591	-0.0383	0.11826	0.011902	0.014801	-0.075989	-0.08194	0.11932	-0.31174	-0.14908	0.075836	0.082703	-0.034637	0.041656	0.076294	-0.004883	-0.11185	0.19501	-0.00061	-0.01358
40.358	0.010681	-0.074768	0.023499	0.00824	-0.027008	-0.010071	-0.043945	0.006866	0.034485	-0.04364	0.067444	0.000916	-0.035095	-0.032806	-0.012512	0.002136	-0.000763	-0.081635	-0.15381	0.065613	0.14481	-0.079193	0.14114	0.11612	-0.013885	0.047607	0.07019	0.012054	0.39368	0.29739	0.002289	-0.014496
40.359	0.01297	-0.064545	0.0177	0.014191	0.016022	-0.017395	-0.051575	0.005798	0.032959	-0.04715	0.06012	0.005798	-0.007324	-0.052948	-0.081177	0.015411	-0.003815	-0.04776	0.01709	-0.001831	0.44144	-0.095825	0.17014	0.085449	-0.046844	0.045471	0.006256	-0.007935	-0.21942	0.25635	0.000153	-0.014801
40.36	0.005188	-0.04776	-0.003052	-0.004578	-0.018158	0.00061	-0.071106	0.003967	0.038452	-0.037689	0.004578	0.005646	-0.002441	-0.068054	-0.22186	0.003815	-0.000458	-0.11765	0.10498	-0.12436	0.071411	0.072021	0.20142	0.016785	-0.041351	0.042267	-0.006866	-0.028229	0.11643	0.14847	-0.001373	-0.015259
40.361	0.012817	-0.072784	-0.018616	0.017242	-0.050507	-0.06073	-0.084229	0.002747	0.039368	-0.022125	0.011597	0.003967	-0.002289	-0.090179	-0.19959	0.002899	0.01358	-0.083313	0.17487	-0.16556	0.074005	0.10529	0.097656	-0.042114	-0.068054	0.023651	0.06134	-0.039978	1.3416	0.047607	0.000458	-0.000916
40.362	-0.003052	-0.10132	-0.028076	0.018463	0.020905	-0.023499	-0.055542	-0.001221	0.03418	-0.017548	0.025482	0.005493	-0.029449	-0.089417	-0.093384	-0.00473	0.001373	-0.083618	0.059357	-0.047607	0.10101	0.09201	-0.005188	-0.014496	-0.0177	0.016022	0.30914	0.051117	1.2241	0.006714	0.002289	-0.011902
40.363	0.007629	-0.10086	-0.052338	-0.005951	0.023651	0.017853	-0.064545	0.00824	0.025482	-0.020447	0.0177	0.012207	-0.026398	-0.074158	-0.036163	0.009308	-0.019989	-0.063934	0.006409	0.023956	-0.017548	0.15137	-0.18692	-0.072937	-0.059662	0.018463	0.2945	0.027313	-0.39444	-0.12436	-0.003662	-0.009613
40.364	-0.00412	-0.1265	-0.066071	-0.016174	-0.021973	0.04776	-0.066681	0.014954	0.029755	-0.027008	-0.008698	0.009155	-0.024872	-0.060883	-0.00946	0.002747	-0.008545	-0.065918	-0.35477	0.062103	0.088196	0.18631	-0.13534	-0.05661	-0.036469	0.015106	0.50232	-0.014954	-0.53528	-0.13519	-0.001221	-0.010529
40.365	-0.002289	-0.095367	-0.074921	-0.003662	-0.031128	0.018158	-0.071106	0.007935	0.019836	-0.028992	0.00061	0.004425	-0.023956	-0.051422	0.004883	0.010681	-0.002594	-0.050964	-0.48065	0.16769	0.13123	0.121	-0.18951	-0.053406	0.097351	0.011139	0.6221	-0.010834	-0.69534	-0.11536	-0.000763	-0.014496
40.366	-0.002136	-0.067291	-0.090179	0.006104	-0.031128	-0.013885	-0.076599	0.006866	0.027313	-0.02243	0.009766	0.006561	-0.028534	-0.073242	0.019379	0.00946	-0.018158	-0.013428	0.15595	0.20325	0.019836	0.099487	-0.13962	0.048981	0.12482	0.015106	0.33218	-0.007324	-0.54474	-0.16586	-0.001373	0.004272
40.367	0.008392	-0.10925	-0.03952	0.016174	0.048065	-0.043335	-0.063019	0.007477	0.019531	-0.013885	0.03006	0.012512	-0.045319	-0.041656	0.027771	0.00473	-0.014496	-0.037079	0.37827	0.14297	-0.1976	0.072784	-0.21729	0.009613	0.085144	0.00351	-0.43686	-0.003357	0.30441	-0.011902	0.001526	-0.003204
40.368	0.00412	-0.15549	-0.028534	0.010681	0.046539	-0.068054	-0.050049	0.012665	0.020599	-0.022583	0.016327	0.00473	-0.032654	-0.076141	0.029602	0.021057	-0.024109	-0.079193	0.42633	0.068512	-0.09613	0.070801	-0.06073	-0.010529	0.050049	0.002289	-0.70465	-0.008087	0.48904	-0.044403	0.001373	-0.007935
40.369	0.013885	-0.12604	0.018005	0.012817	0.009613	-0.057526	-0.076447	0.004883	0.027466	-0.025024	0.026245	0.006256	-0.04776	-0.081482	0.044098	0.010681	-0.026855	-0.13321	0.41809	0.029907	-0.007172	0.08728	0.038757	0.001373	0.037537	0.001221	-0.65674	-0.011902	-0.17227	-0.15915	-0.000763	-0.008698
40.37	0.013123	-0.1236	0.020142	0.011902	-0.005341	0.014343	-0.055542	0.002747	0.020752	-0.040741	0.032043	0.001221	-0.060272	-0.06424	0.029755	0.013733	-0.01358	-0.14297	-0.013275	0.036621	0.064545	0.097198	0.12054	0.011444	0.028534	0.002441	-0.44907	-0.012665	-0.70618	-0.19898	-0.002899	-0.008545
40.371	0.007477	-0.11368	-0.013885	0.015869	0.002289	0.10513	-0.061188	0.007019	0.019379	-0.03891	-0.022736	0.004883	-0.042267	-0.075378	0.003967	0.014191	-0.023041	-0.16525	-0.24292	0.027313	0.049438	0.14893	0.089874	0.12161	0.039063	-0.007629	-0.075836	-0.011902	-0.69885	-0.094147	0.009003	-0.007782
40.372	0.001831	-0.121	0.012054	0.012665	-0.024719	0.11765	-0.063934	0.010071	0.007629	-0.032806	-0.067291	0.010223	-0.054932	-0.068207	-0.018158	0.011597	-0.029602	-0.11536	-0.15656	-0.006714	-0.010834	0.21301	0.13916	0.17502	0.048828	-0.03067	-0.003357	-0.012665	-0.49698	0.004883	0.000916	-0.007935
40.373	-0.005951	-0.12772	0.053253	0.000305	-0.061646	0.11993	-0.042114	0.010071	0.00412	-0.023651	-0.049286	0.00061	-0.04425	-0.050354	-0.016174	0.009003	-0.026398	-0.17181	0.31479	-0.036774	-0.008392	0.21545	0.084076	0.15243	0.028076	-0.014343	-0.095825	-0.014343	1.501	0.015411	0.001221	-0.020905
40.374	0.009155	-0.15045	0.066833	0.017853	-0.018311	0.099792	-0.054779	0.005493	0.016632	-0.028839	-0.033417	0.002136	-0.031738	-0.075378	-0.027466	0.015564	0.000458	-0.15488	0.16815	-0.049591	0.052338	0.075531	-0.12268	0.10071	0.033569	-0.018005	0.033875	-0.003357	1.293	-0.038147	-0.00061	-0.020142
40.375	0.016327	-0.11734	0.00473	0.016327	0.08667	0.033264	-0.073395	0.006256	0.025635	-0.016174	-0.021057	0.005646	-0.03418	-0.061035	-0.010986	0.028229	0.014954	-0.095673	-0.37521	-0.13001	0.094299	-0.056915	-0.20218	0.013885	0.054932	-0.019836	0.20569	0.027771	0.54657	-0.10254	0.00351	-0.015259
40.376	0.019226	-0.099792	-0.015564	0.004425	0.058441	-0.008545	-0.07431	-0.002594	0.028381	-0.008545	-0.005493	0.008698	-0.036163	-0.070648	0.014648	0.010529	0.006104	-0.098724	-0.29114	-0.16464	0.006866	-0.029449	-0.10315	-0.015411	0.00946	-0.076752	0.13733	0.010834	0.1442	-0.10483	-0.000458	-0.009613
40.377	0.011444	-0.090332	0.010223	0.01236	0.063782	0.023499	-0.062714	0.005951	0.026703	-0.026245	-0.005951	0.003357	-0.032043	-0.051575	0.014343	0.018616	0.000305	-0.034485	0.16541	-0.092773	-0.083313	0.03067	0.032654	-0.059052	-0.070496	-0.037689	0.022736	-0.04837	-0.7988	-0.086975	0.00351	-0.011597
40.378	0.012817	-0.084534	-0.003662	0.003052	0.063782	-0.11887	-0.068207	0.00824	0.019684	-0.018463	-0.006256	0	-0.037842	-0.048676	0.010071	0.011444	-0.002136	-0.074921	0.50537	0.043488	-0.040894	0.065308	-0.098114	-0.16235	-0.10483	-0.054779	0.055847	-0.064392	-1.6306	-0.051117	-0.00061	-0.010529
